<?xml version="1.0" ?><!DOCTYPE svg  PUBLIC '-//W3C//DTD SVG 1.1//EN'  'http://www.w3.org/Graphics/SVG/1.1/DTD/svg11.dtd'><svg enable-background="new 0 0 50 50" id="Layer_1" version="1.1" viewBox="0 0 50 50" xml:space="preserve" xmlns="http://www.w3.org/2000/svg" xmlns:xlink="http://www.w3.org/1999/xlink"><path d="M45,1H5C2.8,1,1,2.8,1,5v40c0,2.2,1.8,4,4,4h40c2.2,0,4-1.8,4-4V5C49,2.8,47.2,1,45,1z" fill="#1478FF"/><g id="Be"><path d="M39,28.5h0.9C40,28,40,27.5,40,27c0-4.1-3.1-7.5-7-7.5s-7,3.4-7,7.5s3.1,7.5,7,7.5   c2.7,0,5-1.6,6.2-4h-3.7c-0.7,0.6-1.5,1-2.5,1c-1.7,0-3.2-1.3-3.8-3h7.5H39z M29.2,25.5c0.6-1.7,2-3,3.8-3s3.2,1.3,3.8,3H29.2z" fill="#FFFFFF" id="e_1_"/><rect fill="#FFFFFF" height="2" id="line_2_" width="7" x="29" y="16.5"/><path d="M20.9,24.6c1.3-0.9,2.1-2.4,2.1-4.1c0-2.8-2.2-5-5-5l0,0h-8v9v1v9h10c2.8,0,5-2.2,5-5   C25,27,23.2,25,20.9,24.6z M13,18.5h5c1.1,0,2,0.9,2,2s-0.9,2-2,2h-5V18.5z M19,31.5h-6v-5h6c1.1,0.2,2,1.3,2,2.5   S20.1,31.3,19,31.5z" fill="#FFFFFF" id="B_2_"/></g></svg>