<?xml version="1.0" ?><!DOCTYPE svg  PUBLIC '-//W3C//DTD SVG 1.1//EN'  'http://www.w3.org/Graphics/SVG/1.1/DTD/svg11.dtd'><svg enable-background="new 0 0 50 50" id="Layer_1" version="1.1" viewBox="0 0 50 50" xml:space="preserve" xmlns="http://www.w3.org/2000/svg" xmlns:xlink="http://www.w3.org/1999/xlink"><path d="M45,1H5C2.8,1,1,2.8,1,5v40c0,2.2,1.8,4,4,4h40c2.2,0,4-1.8,4-4V5C49,2.8,47.2,1,45,1z" fill="#E62387"/><path d="M25,40c-8.3,0-15-6.7-15-15s6.7-15,15-15s15,6.7,15,15S33.3,40,25,40L25,40z M37.7,27  c-0.4-0.1-4-1.2-8-0.5c1.7,4.6,2.4,8.3,2.5,9.1C35,33.7,37.1,30.6,37.7,27L37.7,27z M30,36.8c-0.2-1.1-0.9-5-2.7-9.7  c0,0-0.1,0-0.1,0c-7.2,2.5-9.8,7.5-10.1,8c2.2,1.7,4.9,2.7,7.9,2.7C26.8,37.8,28.5,37.4,30,36.8L30,36.8z M15.5,33.6  c0.3-0.5,3.8-6.3,10.4-8.4c0.2-0.1,0.3-0.1,0.5-0.2c-0.3-0.7-0.7-1.5-1-2.2c-6.4,1.9-12.6,1.8-13.2,1.8c0,0.1,0,0.3,0,0.4  C12.2,28.3,13.4,31.3,15.5,33.6L15.5,33.6z M12.5,22.4c0.6,0,5.9,0,11.8-1.6c-2.1-3.8-4.4-6.9-4.8-7.4C16,15.1,13.3,18.4,12.5,22.4  L12.5,22.4z M22,12.6c0.4,0.5,2.7,3.6,4.8,7.5c4.6-1.7,6.5-4.3,6.7-4.6c-2.3-2-5.2-3.2-8.5-3.2C24,12.2,23,12.3,22,12.6L22,12.6z   M34.9,16.9c-0.3,0.4-2.4,3.1-7.2,5c0.3,0.6,0.6,1.2,0.8,1.9c0.1,0.2,0.2,0.4,0.3,0.7c4.3-0.5,8.5,0.3,8.9,0.4  C37.8,21.9,36.7,19.1,34.9,16.9L34.9,16.9z" fill="#FFFFFF" id="ball_1_"/></svg>